<?xml version="1.0" encoding="utf-8"?>
<!-- Generator: Adobe Illustrator 21.0.1, SVG Export Plug-In . SVG Version: 6.00 Build 0)  -->
<svg version="1.1" id="Layer_1" xmlns="http://www.w3.org/2000/svg" xmlns:xlink="http://www.w3.org/1999/xlink" x="0px" y="0px"
	 viewBox="0 0 120.3 40.8" style="enable-background:new 0 0 120.3 40.8;" xml:space="preserve">
<style type="text/css">
	.st0{fill:#00274C;}
	.st1{fill:#0079C1;}
</style>
<path class="st0" d="M27.4,2.9v3c-2.8-1.9-6.2-3-9.8-3C7.9,2.9,0,10.8,0,20.5c0,9.7,7.9,17.6,17.6,17.6c3.6,0,7-1.1,9.8-3v3h7.8V2.9
	H27.4z M17.6,30.3c-5.4,0-9.8-4.4-9.8-9.8s4.4-9.8,9.8-9.8s9.8,4.4,9.8,9.8S23,30.3,17.6,30.3z"/>
<polygon class="st1" points="82.4,5.5 76.9,0 62,14.9 47.1,0 41.6,5.5 56.5,20.4 41.6,35.2 47.1,40.8 62,25.9 76.9,40.8 82.4,35.2 
	67.5,20.4 "/>
<path class="st0" d="M119.9,24.2c0.3-1.2,0.4-2.4,0.4-3.7c0-9.7-7.9-17.6-17.6-17.6S85,10.8,85,20.5c0,9.7,7.9,17.6,17.6,17.6
	c7.9,0,14.6-5.2,16.8-12.4h-8.6c-1.7,2.8-4.8,4.6-8.3,4.6c-4.1,0-7.6-2.5-9.1-6.1L119.9,24.2z M102.6,10.7c3.9,0,7.3,2.3,8.8,5.7
	H93.8C95.4,13.1,98.7,10.7,102.6,10.7z"/>
</svg>
